<?xml version="1.0" encoding="UTF-8"?>
<svg id="Layer_1" data-name="Layer 1" xmlns="http://www.w3.org/2000/svg" viewBox="0 0 1158.73 300">
  <defs>
    <style>
      .cls-1 {
        fill: #4c979e;
      }

      .cls-2 {
        fill: #4d4d4d;
      }
    </style>
  </defs>
  <g>
    <g>
      <polygon class="cls-1" points="112.55 0 112.55 126.32 249.29 205.26 249.29 78.95 112.55 0"/>
      <polygon class="cls-2" points="249.29 205.26 167.25 252.63 167.25 157.89 249.29 205.26"/>
    </g>
    <g>
      <polygon class="cls-1" points="136.74 300 136.74 173.68 0 94.74 0 221.05 136.74 300"/>
      <polygon class="cls-2" points="0 94.74 82.05 47.37 82.05 142.11 0 94.74"/>
    </g>
  </g>
  <g>
    <path class="cls-2" d="M370.23,67.28h131.56v20.58h-53.41v150.92h-24.5V87.86h-53.66v-20.58Z"/>
    <path class="cls-2" d="M545.89,240.5c-11.76,0-22.17-2.73-31.24-8.21-9.06-5.47-16.17-13.02-21.31-22.66-5.15-9.63-7.72-20.66-7.72-33.08s2.53-22.54,7.59-31.85c5.06-9.31,12.04-16.66,20.95-22.05,8.9-5.39,18.99-8.08,30.26-8.08s21.56,2.49,30.38,7.47c8.82,4.98,15.68,11.92,20.58,20.82,4.9,8.9,7.27,19.15,7.11,30.75,0,1.96-.08,3.96-.25,6-.17,2.04-.41,4.29-.74,6.74h-90.65c.49,6.53,2.33,12.29,5.51,17.27,3.19,4.98,7.27,8.86,12.25,11.64,4.98,2.78,10.66,4.16,17.03,4.16,8.17,0,15.27-1.59,21.32-4.78,6.04-3.18,10.29-7.47,12.74-12.86l20.09,7.11c-4.9,9.96-12.05,17.72-21.44,23.27-9.39,5.55-20.21,8.33-32.46,8.33ZM577.25,166.51c0-5.88-1.47-11.19-4.41-15.92-2.94-4.74-6.9-8.45-11.88-11.15-4.98-2.7-10.58-4.04-16.78-4.04-5.55,0-10.66,1.35-15.31,4.04s-8.58,6.37-11.76,11.03c-3.19,4.65-5.19,10.01-6,16.05h66.15Z"/>
    <path class="cls-2" d="M693.13,238.78l-1.96-17.88c-3.76,6.21-8.62,10.99-14.58,14.33-5.96,3.35-13.68,5.02-23.15,5.02-8.82,0-16.33-1.43-22.54-4.29-6.21-2.86-10.99-6.86-14.33-12-3.35-5.15-5.02-11.15-5.02-18.01,0-10.29,3.84-18.82,11.51-25.6,7.68-6.78,18.78-10.98,33.32-12.62l34.79-3.92v-9.56c0-5.22-2.12-9.68-6.37-13.35-4.25-3.67-10.37-5.51-18.38-5.51-7.51,0-13.88,1.76-19.11,5.27-5.23,3.51-8.74,8.7-10.54,15.56l-20.58-7.35c3.1-10.78,9.19-19.19,18.25-25.24,9.07-6.04,20.05-9.06,32.95-9.06,15.35,0,27.03,3.84,35.04,11.51,8,7.68,12,17.8,12,30.38v82.32h-21.31ZM691.17,182.68l-33.57,4.17c-7.19.98-12.58,2.98-16.17,6-3.59,3.02-5.39,6.98-5.39,11.88,0,4.57,1.75,8.37,5.27,11.39,3.51,3.02,8.45,4.53,14.82,4.53,7.84,0,14.37-1.47,19.6-4.41,5.23-2.94,9.1-7.06,11.64-12.37,2.53-5.31,3.8-11.47,3.8-18.5v-2.7Z"/>
    <path class="cls-2" d="M735.27,62.38h23.03v176.4h-23.03V62.38Z"/>
    <path class="cls-2" d="M796.52,94.72c-4.41,0-8.08-1.47-11.03-4.41-2.94-2.94-4.41-6.53-4.41-10.78s1.47-8.12,4.41-11.15c2.94-3.02,6.62-4.53,11.03-4.53s7.88,1.51,10.9,4.53c3.02,3.02,4.53,6.74,4.53,11.15s-1.51,7.84-4.53,10.78c-3.02,2.94-6.66,4.41-10.9,4.41ZM784.76,116.28h23.27v122.5h-23.27v-122.5Z"/>
    <path class="cls-2" d="M936.9,238.78h-21.07l-1.72-14.46c-3.92,5.23-8.86,9.23-14.82,12-5.96,2.78-12.62,4.17-19.97,4.17-9.47,0-17.72-2-24.74-6-7.03-4-12.46-9.88-16.29-17.64-3.84-7.76-5.76-17.43-5.76-29.03v-71.54h23.28v68.6c0,11.27,2.33,19.85,6.98,25.73s11.72,8.82,21.19,8.82,16.62-3.02,21.93-9.06c5.31-6.04,7.96-15.03,7.96-26.95v-67.13h23.03v122.5Z"/>
    <path class="cls-2" d="M959.69,116.28h21.07l1.47,14.21c3.92-4.9,8.82-8.78,14.7-11.64,5.88-2.86,12.5-4.29,19.84-4.29,8.33,0,15.88,1.84,22.66,5.51,6.78,3.67,12.13,9.11,16.05,16.29,4.08-7.19,9.88-12.62,17.4-16.29,7.51-3.68,15.76-5.51,24.75-5.51s17.52,2,24.62,6c7.11,4,12.62,9.92,16.54,17.76s5.88,17.64,5.88,29.4v71.05h-23.28v-68.11c0-11.43-2.45-20.13-7.35-26.09-4.9-5.96-11.92-8.94-21.07-8.94s-16.66,3.1-22.05,9.31c-5.39,6.21-8.08,15.27-8.08,27.2v66.64h-23.28v-68.11c0-11.43-2.29-20.13-6.86-26.09-4.58-5.96-11.43-8.94-20.58-8.94s-16.54,3.1-21.68,9.31c-5.15,6.21-7.72,15.27-7.72,27.2v66.64h-23.03v-122.5Z"/>
  </g>
</svg>